<svg width="684" height="605" viewBox="0 0 684 605" fill="none" xmlns="http://www.w3.org/2000/svg">
<path d="M381.916 603.948L233.416 561.448L239.916 534.448C245.116 516.448 242.082 507.615 239.916 505.448C233.582 477.781 219.916 416.348 215.916 391.948C210.916 361.448 177.416 343.948 153.416 298.948C129.416 253.948 152.916 249.948 163.916 250.948C174.916 251.948 203.916 298.948 231.416 329.448C253.416 353.848 256.582 349.281 255.416 343.948C246.249 288.115 227.716 174.248 226.916 165.448C225.916 154.448 232.916 145.948 249.416 148.448C265.916 150.948 279.916 207.448 288.916 243.948C297.916 280.448 304.916 316.448 311.916 315.948C317.516 315.548 317.582 304.448 316.916 298.948C315.287 266.601 312.811 209.834 311.834 165.448C311.311 141.683 311.218 121.467 311.916 110.448C312.716 97.8107 317.167 93.1753 323 93.005C331.867 88.6089 345.305 102.802 350.916 110.448L362.162 241L373.416 303.948H382.916C392.582 263.115 414.316 176.048 423.916 154.448C433.516 132.848 450.249 145.448 457.416 154.448C450.082 217.615 435.416 350.548 435.416 376.948C435.416 403.348 450.082 407.948 457.416 406.948C470.082 400.115 497.616 382.648 506.416 367.448C517.416 348.448 542.416 346.948 567.916 343.948C588.316 341.548 589.749 358.615 587.916 367.448C578.082 374.281 552.716 395.848 529.916 427.448C507.116 459.048 516 451 506.416 474.448L457.416 518.448L431.416 539.948L405.416 561.448L381.916 603.948Z" fill="#FFE8BE"/>
<path d="M373.416 303.948H382.916C392.582 263.115 414.316 176.048 423.916 154.448C433.516 132.848 450.249 145.448 457.416 154.448C450.082 217.615 435.416 350.548 435.416 376.948C435.416 403.348 450.082 407.948 457.416 406.948C470.082 400.115 497.616 382.648 506.416 367.448C517.416 348.448 542.416 346.948 567.916 343.948C588.316 341.548 589.749 358.615 587.916 367.448C578.082 374.281 552.716 395.848 529.916 427.448C507.116 459.048 516 451 506.416 474.448L457.416 518.448L431.416 539.948L405.416 561.448L381.916 603.948L233.416 561.448L239.916 534.448C245.116 516.448 242.082 507.615 239.916 505.448C233.582 477.781 219.916 416.348 215.916 391.948C210.916 361.448 177.416 343.948 153.416 298.948C129.416 253.948 152.916 249.948 163.916 250.948C174.916 251.948 203.916 298.948 231.416 329.448C253.416 353.848 256.582 349.281 255.416 343.948C246.249 288.115 227.716 174.248 226.916 165.448C225.916 154.448 232.916 145.948 249.416 148.448C265.916 150.948 279.916 207.448 288.916 243.948C297.916 280.448 304.916 316.448 311.916 315.948C317.516 315.548 317.582 304.448 316.916 298.948M373.416 303.948L362.416 243.948L362.162 241M373.416 303.948L362.162 241M316.916 298.948C315.287 266.601 312.811 209.834 311.834 165.448M316.916 298.948L311.834 165.448M362.162 241L350.916 110.448C345.305 102.802 331.867 88.6089 323 93.005C317.167 93.1753 312.716 97.8107 311.916 110.448C311.218 121.467 311.311 141.683 311.834 165.448" stroke="black"/>
<path d="M362.5 217C362.5 258.213 381 308.5 374 305C374 305 349.412 308.5 342.5 308.5C335.588 308.5 305.5 322.5 316.5 308.5C316.5 285 312 258.213 312 217C312 155.144 301.29 86.5 322 86.5C367 86.5 352 156.5 362.5 217Z" fill="#4ECDC4"/>
<path d="M290 241C300.626 303.208 319.111 304.622 315.5 318.5C315.5 318.5 286.834 337.688 279.968 338.479C273.101 339.269 260.292 351.009 255.035 344.871C252.348 321.526 243.918 292.009 239.206 251.066C232.133 189.616 208.425 133.368 229 131C273.705 125.855 272.651 182.097 290 241Z" fill="#45B7D1"/>
<path d="M206.5 298C248.5 346 246.5 338.999 257.5 346C257.5 346 238.061 378.831 231.679 381.485C225.297 384.139 219.747 389.451 213 385.002C203.977 363.303 173.5 338.502 164.5 317.501C150 296.002 131.356 269.648 146 255.002C170 231 199.5 290 206.5 298Z" fill="#96CEB4"/>
<path d="M444.999 289.001C434.41 328.83 447.791 384.406 439.354 396.001C439.354 396.001 405.903 336.501 399.999 326.001C394.999 320.001 359.5 301 380.999 303.501C387.037 280.79 382.376 299.192 392.965 259.363C408.858 199.583 418.751 141.606 439.354 139.501C478.499 135.501 450.396 227.834 444.999 289.001Z" fill="#FF6B6B"/>
<path d="M451.182 77.4545V124H445.545V83.3636H445.273L433.909 90.9091V85.1818L445.545 77.4545H451.182Z" fill="#FF6B6B"/>
<path d="M309.818 62V57.9091L325.182 41.0909C326.985 39.1212 328.47 37.4091 329.636 35.9545C330.803 34.4848 331.667 33.1061 332.227 31.8182C332.803 30.5152 333.091 29.1515 333.091 27.7273C333.091 26.0909 332.697 24.6742 331.909 23.4773C331.136 22.2803 330.076 21.3561 328.727 20.7045C327.379 20.053 325.864 19.7273 324.182 19.7273C322.394 19.7273 320.833 20.0985 319.5 20.8409C318.182 21.5682 317.159 22.5909 316.432 23.9091C315.72 25.2273 315.364 26.7727 315.364 28.5455H310C310 25.8182 310.629 23.4242 311.886 21.3636C313.144 19.303 314.856 17.697 317.023 16.5455C319.205 15.3939 321.652 14.8182 324.364 14.8182C327.091 14.8182 329.508 15.3939 331.614 16.5455C333.72 17.697 335.371 19.25 336.568 21.2045C337.765 23.1591 338.364 25.3333 338.364 27.7273C338.364 29.4394 338.053 31.1136 337.432 32.75C336.826 34.3712 335.765 36.1818 334.25 38.1818C332.75 40.1667 330.667 42.5909 328 45.4545L317.545 56.6364V57H339.182V62H309.818Z" fill="#4ECDC4"/>
<path d="M220.545 109.636C217.545 109.636 214.871 109.121 212.523 108.091C210.189 107.061 208.333 105.629 206.955 103.795C205.591 101.947 204.848 99.803 204.727 97.3636H210.455C210.576 98.8636 211.091 100.159 212 101.25C212.909 102.326 214.098 103.159 215.568 103.75C217.038 104.341 218.667 104.636 220.455 104.636C222.455 104.636 224.227 104.288 225.773 103.591C227.318 102.894 228.53 101.924 229.409 100.682C230.288 99.4394 230.727 98 230.727 96.3636C230.727 94.6515 230.303 93.1439 229.455 91.8409C228.606 90.5227 227.364 89.4924 225.727 88.75C224.091 88.0076 222.091 87.6364 219.727 87.6364H216V82.6364H219.727C221.576 82.6364 223.197 82.303 224.591 81.6364C226 80.9697 227.098 80.0303 227.886 78.8182C228.689 77.6061 229.091 76.1818 229.091 74.5455C229.091 72.9697 228.742 71.5985 228.045 70.4318C227.348 69.2651 226.364 68.3561 225.091 67.7045C223.833 67.053 222.348 66.7273 220.636 66.7273C219.03 66.7273 217.515 67.0227 216.091 67.6136C214.682 68.1894 213.53 69.0303 212.636 70.1364C211.742 71.2273 211.258 72.5455 211.182 74.0909H205.727C205.818 71.6515 206.553 69.5151 207.932 67.6818C209.311 65.8333 211.114 64.3939 213.341 63.3636C215.583 62.3333 218.045 61.8182 220.727 61.8182C223.606 61.8182 226.076 62.4015 228.136 63.5682C230.197 64.7197 231.78 66.2424 232.886 68.1364C233.992 70.0303 234.545 72.0758 234.545 74.2727C234.545 76.8939 233.856 79.1288 232.477 80.9773C231.114 82.8258 229.258 84.1061 226.909 84.8182V85.1818C229.848 85.6667 232.144 86.9167 233.795 88.9318C235.447 90.9318 236.273 93.4091 236.273 96.3636C236.273 98.8939 235.583 101.167 234.205 103.182C232.841 105.182 230.977 106.758 228.614 107.909C226.25 109.061 223.561 109.636 220.545 109.636Z" fill="#45B7D1"/>
<path d="M116.727 240.455V235.818L137.182 203.455H140.545V210.636H138.273L122.818 235.091V235.455H150.364V240.455H116.727ZM138.636 250V239.045V236.886V203.455H144V250H138.636Z" fill="#96CEB4"/>
<rect y="491" width="684" height="113" fill="#4ECDC4"/>
<path d="M66.0909 541C65.7159 539.852 65.2216 538.824 64.608 537.915C64.0057 536.994 63.2841 536.21 62.4432 535.562C61.6136 534.915 60.6705 534.42 59.6136 534.08C58.5568 533.739 57.3977 533.568 56.1364 533.568C54.0682 533.568 52.1875 534.102 50.4943 535.17C48.8011 536.239 47.4545 537.812 46.4545 539.892C45.4545 541.972 44.9545 544.523 44.9545 547.545C44.9545 550.568 45.4602 553.119 46.4716 555.199C47.483 557.278 48.8523 558.852 50.5795 559.92C52.3068 560.989 54.25 561.523 56.4091 561.523C58.4091 561.523 60.1705 561.097 61.6932 560.244C63.2273 559.381 64.4205 558.165 65.2727 556.597C66.1364 555.017 66.5682 553.159 66.5682 551.023L67.8636 551.295H57.3636V547.545H70.6591V551.295C70.6591 554.17 70.0455 556.67 68.8182 558.795C67.6023 560.92 65.9205 562.568 63.7727 563.739C61.6364 564.898 59.1818 565.477 56.4091 565.477C53.3182 565.477 50.6023 564.75 48.2614 563.295C45.9318 561.841 44.1136 559.773 42.8068 557.091C41.5114 554.409 40.8636 551.227 40.8636 547.545C40.8636 544.784 41.233 542.301 41.9716 540.097C42.7216 537.881 43.7784 535.994 45.142 534.438C46.5057 532.881 48.1193 531.688 49.983 530.858C51.8466 530.028 53.8977 529.614 56.1364 529.614C57.9773 529.614 59.6932 529.892 61.2841 530.449C62.8864 530.994 64.3125 531.773 65.5625 532.784C66.8239 533.784 67.875 534.983 68.7159 536.381C69.5568 537.767 70.1364 539.307 70.4545 541H66.0909ZM100.808 530.091H105.036V553.205C105.036 555.591 104.473 557.722 103.348 559.597C102.234 561.46 100.661 562.932 98.6264 564.011C96.5923 565.08 94.206 565.614 91.4673 565.614C88.7287 565.614 86.3423 565.08 84.3082 564.011C82.2741 562.932 80.6946 561.46 79.5696 559.597C78.456 557.722 77.8991 555.591 77.8991 553.205V530.091H82.1264V552.864C82.1264 554.568 82.5014 556.085 83.2514 557.415C84.0014 558.733 85.0696 559.773 86.456 560.534C87.8537 561.284 89.5241 561.659 91.4673 561.659C93.4105 561.659 95.081 561.284 96.4787 560.534C97.8764 559.773 98.9446 558.733 99.6832 557.415C100.433 556.085 100.808 554.568 100.808 552.864V530.091ZM117.705 530.091V565H113.477V530.091H117.705ZM124.271 533.841V530.091H150.453V533.841H139.476V565H135.249V533.841H124.271ZM154.331 565H149.899L162.717 530.091H167.081L179.899 565H175.467L165.036 535.614H164.763L154.331 565ZM155.967 551.364H173.831V555.114H155.967V551.364ZM185.337 565V530.091H197.132C199.859 530.091 202.098 530.557 203.848 531.489C205.598 532.409 206.893 533.676 207.734 535.29C208.575 536.903 208.996 538.739 208.996 540.795C208.996 542.852 208.575 544.676 207.734 546.267C206.893 547.858 205.604 549.108 203.865 550.017C202.126 550.915 199.905 551.364 197.2 551.364H187.655V547.545H197.064C198.928 547.545 200.428 547.273 201.564 546.727C202.712 546.182 203.541 545.409 204.053 544.409C204.575 543.398 204.837 542.193 204.837 540.795C204.837 539.398 204.575 538.176 204.053 537.131C203.53 536.085 202.695 535.278 201.547 534.71C200.399 534.131 198.882 533.841 196.996 533.841H189.564V565H185.337ZM201.768 549.318L210.359 565H205.45L196.996 549.318H201.768ZM229.54 565V530.091H250.472V533.841H233.767V545.636H248.903V549.386H233.767V565H229.54ZM261.939 530.091V565H257.712V530.091H261.939ZM298.097 530.091V565H294.006L274.983 537.591H274.642V565H270.415V530.091H274.506L293.597 557.568H293.938V530.091H298.097ZM330.419 541C330.044 539.852 329.55 538.824 328.936 537.915C328.334 536.994 327.612 536.21 326.771 535.562C325.942 534.915 324.999 534.42 323.942 534.08C322.885 533.739 321.726 533.568 320.464 533.568C318.396 533.568 316.516 534.102 314.822 535.17C313.129 536.239 311.783 537.812 310.783 539.892C309.783 541.972 309.283 544.523 309.283 547.545C309.283 550.568 309.788 553.119 310.8 555.199C311.811 557.278 313.18 558.852 314.908 559.92C316.635 560.989 318.578 561.523 320.737 561.523C322.737 561.523 324.499 561.097 326.021 560.244C327.555 559.381 328.749 558.165 329.601 556.597C330.464 555.017 330.896 553.159 330.896 551.023L332.192 551.295H321.692V547.545H334.987V551.295C334.987 554.17 334.374 556.67 333.146 558.795C331.93 560.92 330.249 562.568 328.101 563.739C325.964 564.898 323.51 565.477 320.737 565.477C317.646 565.477 314.93 564.75 312.589 563.295C310.26 561.841 308.442 559.773 307.135 557.091C305.839 554.409 305.192 551.227 305.192 547.545C305.192 544.784 305.561 542.301 306.3 540.097C307.05 537.881 308.107 535.994 309.47 534.438C310.834 532.881 312.447 531.688 314.311 530.858C316.175 530.028 318.226 529.614 320.464 529.614C322.305 529.614 324.021 529.892 325.612 530.449C327.214 530.994 328.641 531.773 329.891 532.784C331.152 533.784 332.203 534.983 333.044 536.381C333.885 537.767 334.464 539.307 334.783 541H330.419ZM342.227 565V530.091H363.295V533.841H346.455V545.636H362.205V549.386H346.455V561.25H363.568V565H342.227ZM370.915 565V530.091H382.71C385.438 530.091 387.676 530.557 389.426 531.489C391.176 532.409 392.472 533.676 393.312 535.29C394.153 536.903 394.574 538.739 394.574 540.795C394.574 542.852 394.153 544.676 393.312 546.267C392.472 547.858 391.182 549.108 389.443 550.017C387.705 550.915 385.483 551.364 382.778 551.364H373.233V547.545H382.642C384.506 547.545 386.006 547.273 387.142 546.727C388.29 546.182 389.119 545.409 389.631 544.409C390.153 543.398 390.415 542.193 390.415 540.795C390.415 539.398 390.153 538.176 389.631 537.131C389.108 536.085 388.273 535.278 387.125 534.71C385.977 534.131 384.46 533.841 382.574 533.841H375.142V565H370.915ZM387.347 549.318L395.938 565H391.028L382.574 549.318H387.347ZM442.8 530.091V565H438.709L419.686 537.591H419.345V565H415.118V530.091H419.209L438.3 557.568H438.641V530.091H442.8ZM474.168 530.091H478.395V553.205C478.395 555.591 477.832 557.722 476.707 559.597C475.594 561.46 474.02 562.932 471.986 564.011C469.952 565.08 467.565 565.614 464.827 565.614C462.088 565.614 459.702 565.08 457.668 564.011C455.634 562.932 454.054 561.46 452.929 559.597C451.815 557.722 451.259 555.591 451.259 553.205V530.091H455.486V552.864C455.486 554.568 455.861 556.085 456.611 557.415C457.361 558.733 458.429 559.773 459.815 560.534C461.213 561.284 462.884 561.659 464.827 561.659C466.77 561.659 468.44 561.284 469.838 560.534C471.236 559.773 472.304 558.733 473.043 557.415C473.793 556.085 474.168 554.568 474.168 552.864V530.091ZM486.837 530.091H491.882L503.746 559.068H504.155L516.018 530.091H521.064V565H517.109V538.477H516.768L505.859 565H502.041L491.132 538.477H490.791V565H486.837V530.091ZM529.54 565V530.091H541.744C544.176 530.091 546.182 530.511 547.761 531.352C549.341 532.182 550.517 533.301 551.29 534.71C552.063 536.108 552.449 537.659 552.449 539.364C552.449 540.864 552.182 542.102 551.648 543.08C551.125 544.057 550.432 544.83 549.568 545.398C548.716 545.966 547.79 546.386 546.79 546.659V547C547.858 547.068 548.932 547.443 550.011 548.125C551.091 548.807 551.994 549.784 552.722 551.057C553.449 552.33 553.812 553.886 553.812 555.727C553.812 557.477 553.415 559.051 552.619 560.449C551.824 561.847 550.568 562.955 548.852 563.773C547.136 564.591 544.903 565 542.153 565H529.54ZM533.767 561.25H542.153C544.915 561.25 546.875 560.716 548.034 559.648C549.205 558.568 549.79 557.261 549.79 555.727C549.79 554.545 549.489 553.455 548.886 552.455C548.284 551.443 547.426 550.636 546.312 550.034C545.199 549.42 543.881 549.114 542.358 549.114H533.767V561.25ZM533.767 545.432H541.608C542.881 545.432 544.028 545.182 545.051 544.682C546.085 544.182 546.903 543.477 547.506 542.568C548.119 541.659 548.426 540.591 548.426 539.364C548.426 537.83 547.892 536.528 546.824 535.46C545.756 534.381 544.063 533.841 541.744 533.841H533.767V545.432ZM560.759 565V530.091H581.827V533.841H564.986V545.636H580.736V549.386H564.986V561.25H582.099V565H560.759ZM589.446 565V530.091H601.241C603.969 530.091 606.207 530.557 607.957 531.489C609.707 532.409 611.003 533.676 611.844 535.29C612.685 536.903 613.105 538.739 613.105 540.795C613.105 542.852 612.685 544.676 611.844 546.267C611.003 547.858 609.713 549.108 607.974 550.017C606.236 550.915 604.014 551.364 601.31 551.364H591.764V547.545H601.173C603.037 547.545 604.537 547.273 605.673 546.727C606.821 546.182 607.651 545.409 608.162 544.409C608.685 543.398 608.946 542.193 608.946 540.795C608.946 539.398 608.685 538.176 608.162 537.131C607.639 536.085 606.804 535.278 605.656 534.71C604.509 534.131 602.991 533.841 601.105 533.841H593.673V565H589.446ZM605.878 549.318L614.469 565H609.56L601.105 549.318H605.878ZM639.24 538.818C639.036 537.091 638.206 535.75 636.751 534.795C635.297 533.841 633.513 533.364 631.399 533.364C629.854 533.364 628.501 533.614 627.342 534.114C626.195 534.614 625.297 535.301 624.649 536.176C624.013 537.051 623.695 538.045 623.695 539.159C623.695 540.091 623.916 540.892 624.359 541.562C624.814 542.222 625.393 542.773 626.098 543.216C626.803 543.648 627.541 544.006 628.314 544.29C629.087 544.562 629.797 544.784 630.445 544.955L633.99 545.909C634.899 546.148 635.911 546.477 637.024 546.898C638.149 547.318 639.223 547.892 640.246 548.619C641.28 549.335 642.132 550.256 642.803 551.381C643.473 552.506 643.808 553.886 643.808 555.523C643.808 557.409 643.314 559.114 642.325 560.636C641.348 562.159 639.916 563.369 638.03 564.267C636.155 565.165 633.876 565.614 631.195 565.614C628.695 565.614 626.53 565.21 624.7 564.403C622.882 563.597 621.45 562.472 620.405 561.028C619.371 559.585 618.786 557.909 618.649 556H623.013C623.126 557.318 623.57 558.409 624.342 559.273C625.126 560.125 626.115 560.761 627.308 561.182C628.513 561.591 629.808 561.795 631.195 561.795C632.808 561.795 634.257 561.534 635.541 561.011C636.825 560.477 637.842 559.739 638.592 558.795C639.342 557.841 639.717 556.727 639.717 555.455C639.717 554.295 639.393 553.352 638.746 552.625C638.098 551.898 637.246 551.307 636.189 550.852C635.132 550.398 633.99 550 632.763 549.659L628.467 548.432C625.74 547.648 623.581 546.528 621.99 545.074C620.399 543.619 619.604 541.716 619.604 539.364C619.604 537.409 620.132 535.705 621.189 534.25C622.257 532.784 623.689 531.648 625.484 530.841C627.291 530.023 629.308 529.614 631.536 529.614C633.786 529.614 635.786 530.017 637.536 530.824C639.286 531.619 640.672 532.71 641.695 534.097C642.729 535.483 643.274 537.057 643.331 538.818H639.24Z" fill="#464646"/>
</svg>
