<svg width="480" height="77" viewBox="0 0 480 77" fill="none" xmlns="http://www.w3.org/2000/svg">
<path d="M47.75 32.3182H36.5227C36.5833 31.1364 36.4697 30.0833 36.1818 29.1591C35.8939 28.2197 35.4394 27.4167 34.8182 26.75C34.197 26.0682 33.4242 25.553 32.5 25.2045C31.5758 24.8561 30.5 24.6818 29.2727 24.6818C26.9242 24.6818 24.7955 25.2651 22.8864 26.4318C20.9773 27.5985 19.3788 29.2803 18.0909 31.4773C16.803 33.6742 15.9015 36.3106 15.3864 39.3864C14.9167 42.3561 14.9242 44.8333 15.4091 46.8182C15.9091 48.803 16.8333 50.2955 18.1818 51.2955C19.5303 52.2803 21.2424 52.7727 23.3182 52.7727C24.6667 52.7727 25.9167 52.6136 27.0682 52.2955C28.2348 51.9621 29.2879 51.4848 30.2273 50.8636C31.1667 50.2424 31.9773 49.4924 32.6591 48.6136C33.3561 47.7197 33.8939 46.7273 34.2727 45.6364H45.5909C45.0303 47.6818 44.1061 49.7197 42.8182 51.75C41.5455 53.7652 39.9394 55.5909 38 57.2273C36.0606 58.8636 33.8106 60.1742 31.25 61.1591C28.6894 62.1439 25.8409 62.6364 22.7045 62.6364C18.4167 62.6364 14.7197 61.6742 11.6136 59.75C8.52273 57.8258 6.28788 55.0379 4.90909 51.3864C3.54545 47.7197 3.28788 43.2803 4.13636 38.0682C4.9697 33.0227 6.61364 28.7727 9.06818 25.3182C11.5379 21.8636 14.5379 19.25 18.0682 17.4773C21.6136 15.7045 25.3939 14.8182 29.4091 14.8182C32.3182 14.8182 34.9318 15.2121 37.25 16C39.5833 16.7727 41.5606 17.9091 43.1818 19.4091C44.803 20.8939 46.0076 22.7197 46.7955 24.8864C47.5985 27.053 47.9167 29.5303 47.75 32.3182ZM49.3011 62L57.0284 15.4545H68.2784L65.1875 34.1364H83.5284L86.6193 15.4545H97.8466L90.1193 62H78.892L81.983 43.2955H63.642L60.5511 62H49.3011ZM97.1761 62L104.903 15.4545H124.131C127.616 15.4545 130.525 16.0833 132.858 17.3409C135.191 18.5833 136.85 20.3712 137.835 22.7045C138.82 25.0227 139.047 27.7727 138.517 30.9545C138.002 34.1667 136.85 36.9015 135.062 39.1591C133.29 41.4015 131.002 43.1136 128.199 44.2955C125.411 45.4773 122.244 46.0682 118.699 46.0682H106.54L108.04 37.2045H118.108C119.79 37.2045 121.244 36.9848 122.472 36.5455C123.699 36.0909 124.676 35.4091 125.403 34.5C126.146 33.5758 126.638 32.3939 126.881 30.9545C127.108 29.5151 127.002 28.3258 126.562 27.3864C126.138 26.4318 125.388 25.7197 124.312 25.25C123.252 24.7652 121.888 24.5227 120.222 24.5227H114.676L108.426 62H97.1761ZM126.903 40.7273L134.972 62H122.699L114.881 40.7273H126.903ZM159.028 15.4545L151.301 62H140.051L147.778 15.4545H159.028ZM188.886 29.5C189.008 27.7879 188.553 26.4621 187.523 25.5227C186.508 24.5833 184.902 24.1136 182.705 24.1136C181.25 24.1136 180.008 24.303 178.977 24.6818C177.947 25.0455 177.136 25.5606 176.545 26.2273C175.955 26.8788 175.583 27.6364 175.432 28.5C175.295 29.1818 175.333 29.7879 175.545 30.3182C175.758 30.8485 176.129 31.3182 176.659 31.7273C177.205 32.1364 177.879 32.4924 178.682 32.7955C179.5 33.0985 180.417 33.3636 181.432 33.5909L185.25 34.5C187.462 35 189.379 35.6667 191 36.5C192.636 37.3182 193.962 38.3106 194.977 39.4773C195.992 40.6288 196.689 41.9545 197.068 43.4545C197.447 44.9545 197.477 46.6364 197.159 48.5C196.674 51.4394 195.515 53.9621 193.682 56.0682C191.864 58.1742 189.485 59.7879 186.545 60.9091C183.621 62.0303 180.22 62.5909 176.341 62.5909C172.462 62.5909 169.167 62.0076 166.455 60.8409C163.758 59.6591 161.803 57.8788 160.591 55.5C159.379 53.1212 159.053 50.1212 159.614 46.5H170.364C170.197 48 170.386 49.25 170.932 50.25C171.492 51.25 172.356 52.0076 173.523 52.5227C174.689 53.0379 176.098 53.2955 177.75 53.2955C179.265 53.2955 180.591 53.0909 181.727 52.6818C182.879 52.2727 183.795 51.7045 184.477 50.9773C185.174 50.25 185.598 49.4167 185.75 48.4773C185.902 47.6136 185.758 46.8636 185.318 46.2273C184.894 45.5909 184.167 45.0379 183.136 44.5682C182.121 44.0985 180.788 43.6742 179.136 43.2955L174.477 42.1591C170.629 41.2197 167.712 39.7197 165.727 37.6591C163.758 35.5985 163.061 32.803 163.636 29.2727C164.121 26.3788 165.318 23.8485 167.227 21.6818C169.152 19.5151 171.583 17.8333 174.523 16.6364C177.477 15.4242 180.727 14.8182 184.273 14.8182C187.879 14.8182 190.909 15.4318 193.364 16.6591C195.833 17.8712 197.614 19.5833 198.705 21.7955C199.811 23.9924 200.129 26.5606 199.659 29.5H188.886ZM205.273 24.5909L206.818 15.4545H246.159L244.614 24.5909H230.5L224.318 62H213.227L219.409 24.5909H205.273ZM288.938 32.3182H277.71C277.771 31.1364 277.657 30.0833 277.369 29.1591C277.081 28.2197 276.627 27.4167 276.006 26.75C275.384 26.0682 274.612 25.553 273.688 25.2045C272.763 24.8561 271.688 24.6818 270.46 24.6818C268.112 24.6818 265.983 25.2651 264.074 26.4318C262.165 27.5985 260.566 29.2803 259.278 31.4773C257.991 33.6742 257.089 36.3106 256.574 39.3864C256.104 42.3561 256.112 44.8333 256.597 46.8182C257.097 48.803 258.021 50.2955 259.369 51.2955C260.718 52.2803 262.43 52.7727 264.506 52.7727C265.854 52.7727 267.104 52.6136 268.256 52.2955C269.422 51.9621 270.475 51.4848 271.415 50.8636C272.354 50.2424 273.165 49.4924 273.847 48.6136C274.544 47.7197 275.081 46.7273 275.46 45.6364H286.778C286.218 47.6818 285.294 49.7197 284.006 51.75C282.733 53.7652 281.127 55.5909 279.188 57.2273C277.248 58.8636 274.998 60.1742 272.438 61.1591C269.877 62.1439 267.028 62.6364 263.892 62.6364C259.604 62.6364 255.907 61.6742 252.801 59.75C249.71 57.8258 247.475 55.0379 246.097 51.3864C244.733 47.7197 244.475 43.2803 245.324 38.0682C246.157 33.0227 247.801 28.7727 250.256 25.3182C252.725 21.8636 255.725 19.25 259.256 17.4773C262.801 15.7045 266.581 14.8182 270.597 14.8182C273.506 14.8182 276.119 15.2121 278.438 16C280.771 16.7727 282.748 17.9091 284.369 19.4091C285.991 20.8939 287.195 22.7197 287.983 24.8864C288.786 27.053 289.104 29.5303 288.938 32.3182ZM290.489 62L298.216 15.4545H309.466L306.375 34.1364H324.716L327.807 15.4545H339.034L331.307 62H320.08L323.17 43.2955H304.83L301.739 62H290.489ZM348.432 62H336.341L359.773 15.4545H374.75L382.727 62H370.636L365.523 27.1818H365.159L348.432 62ZM349.886 43.6818H375.159L373.705 52.2273H348.432L349.886 43.6818ZM435.08 15.4545L427.352 62H417.807L403.784 35.1364H403.466L398.989 62H387.739L395.466 15.4545H405.148L419.057 42.2727H419.443L423.852 15.4545H435.08ZM439.085 24.5909L440.631 15.4545H479.972L478.426 24.5909H464.312L458.131 62H447.04L453.222 24.5909H439.085Z" fill="url(#paint0_linear_1294_12)"/>
<defs>
<linearGradient id="paint0_linear_1294_12" x1="0" y1="38.5" x2="478" y2="38.5" gradientUnits="userSpaceOnUse">
<stop stop-color="#5E6D7A"/>
<stop offset="0.238469" stop-color="#FFFDFA"/>
<stop offset="0.954648" stop-color="#F4AF4A"/>
</linearGradient>
</defs>
</svg>
